<svg width="132" height="124" viewBox="0 0 132 124" fill="none" xmlns="http://www.w3.org/2000/svg">
<path d="M61.4232 63.6617C67.7319 68.2641 80.0726 67.3779 87.0197 64.6637C88.3757 65.326 88.2965 65.1202 89.3945 66.1558C88.9576 66.8946 87.7829 68.7685 87.4979 69.4556C83.8396 71.8416 83.8135 71.8655 79.694 71.7889C78.2183 71.7612 72.2924 78.2471 70.1496 79.8961C67.7066 76.9598 66.6617 74.015 63.9302 72.8838C60.0663 75.262 51.0152 82.5978 49.4644 87.1658L47.9684 84.5598C46.8873 85.6211 46.9303 85.5168 46.6014 87.093C44.3633 86.0843 44.2604 85.7829 41.8798 86.3963L40.3315 91.3777L38.7689 91.7491C37.5419 90.5671 36.4101 89.3899 35.227 88.1582C34.6679 89.8933 34.3736 91.4179 33.3903 92.7808C29.6393 96.6424 30.3384 101.062 22.5135 103.182L22.3987 101.668C24.6689 97.3296 29.4353 93.9627 33.1331 90.9069C25.1125 88.275 13.0323 81.6972 5.44855 80.8225L5.15759 78.4949C17.4984 78.2614 47.588 93.0803 54.5587 72.0224C55.8481 70.3371 55.8574 69.2815 56.2647 67.108L56.2537 66.5912C58.2355 66.1271 59.6801 64.8762 61.4232 63.6617Z" fill="#616D45"/>
<path d="M26.5975 23.2361C36.5459 31.1901 55.3127 43.8097 60.9214 54.8588C61.0977 57.7558 61.3262 60.7714 61.4232 63.6617C59.6801 64.8762 58.2355 66.1271 56.2537 66.5912C54.9871 64.7279 52.3087 63.0894 50.4763 61.7754L47.0306 58.821C46.8358 58.6295 42.4836 52.6299 41.857 51.8106L40.7076 52.159L34.9495 45.1831C34.8247 39.5068 27.903 31.749 24.2768 27.7218L23.2615 25.8249L26.5975 23.2361ZM54.3724 55.678L54.3016 52.7208C52.028 50.6373 50.0808 51.4441 47.2026 51.9944C48.9238 54.7468 49.6862 54.7392 52.6436 55.9737L54.3724 55.678Z" fill="#36322F"/>
<path d="M60.9214 54.8588C61.0977 57.7558 61.3262 60.7714 61.4232 63.6617C59.6801 64.8762 58.2355 66.1271 56.2537 66.5912C54.9871 64.7279 52.3087 63.0894 50.4763 61.7754C53.2203 60.158 55.0031 60.9781 58.1089 61.6299C60.3622 59.3598 59.9947 58.5339 60.9214 54.8588Z" fill="#202226"/>
<path d="M47.2026 51.9944C50.0808 51.4441 52.028 50.6373 54.3016 52.7208L54.3724 55.678L52.6436 55.9737C49.6862 54.7392 48.9238 54.7468 47.2026 51.9944Z" fill="#403F3E" fill-opacity="0.894118"/>
<path d="M49.4644 87.1658C55.5378 89.5134 53.7643 83.1347 62.0759 88.8674C74.3779 89.6847 70.6919 76.8058 80.4041 75.6018L81.6252 76.712C80.9927 80.3095 75.7989 84.1769 73.2867 86.9859C69.1916 91.5663 53.3385 90.5681 51.2404 91.7605C42.3048 96.8396 29.1848 106.842 20.1286 112.685C15.9998 115.35 11.3837 121.074 6.81049 123.429L6.67474 122.347C18.1259 105.829 26.5132 106.934 36.0458 98.2704L37.7755 96.5764C41.5265 95.6088 44.1002 90.7825 46.6014 87.093C46.9303 85.5168 46.8873 85.6211 47.9684 84.5598L49.4644 87.1658Z" fill="#616D45" fill-opacity="0.988235"/>
<path d="M89.3945 66.1558C105.477 61.472 117.524 46.9182 127.984 33.6344C129.054 32.2764 129.728 32.0897 131.157 32.3223C130.762 34.8566 122.864 44.9869 120.906 47.2178C111.629 57.7883 100.868 67.8402 87.4979 69.4556C87.7829 68.7685 88.9576 66.8946 89.3945 66.1558Z" fill="#040205"/>
<path d="M12.4091 22.4561C8.54767 16.5387 2.69855 6.77779 0 0C6.93021 5.62073 20.3361 16.933 26.5975 23.2361L23.2615 25.8249C21.9577 24.2362 20.5654 22.8341 19.1597 21.3651L17.9529 21.6197C15.9046 21.6924 14.277 21.5373 12.4091 22.4561Z" fill="#463929"/>
<path d="M40.5213 54.677C42.2973 56.8581 44.3751 59.5636 46.2303 61.5773C49.6845 64.2599 52.0659 66.6754 56.2647 67.108C55.8574 69.2815 55.8481 70.3371 54.5587 72.0224C53.3266 72.1851 52.6233 72.5929 51.4132 73.08C47.405 72.2904 40.1662 60.2805 36.1808 55.4799L40.5213 54.677Z" fill="#040205"/>
<path d="M30.2667 39.0637C32.0646 42.2622 32.3539 42.8326 34.9495 45.1831L40.7076 52.159L40.5213 54.677L36.1808 55.4799C33.6197 51.3072 29.9648 46.5124 27.0521 42.4995L30.2667 39.0637Z" fill="#4B4841"/>
<path d="M17.9529 21.6197C19.6851 25.0344 20.2442 26.0565 22.5228 29.0071L25.847 33.8363L22.1458 35.8394C18.4404 31.17 15.5875 27.6672 12.4091 22.4561C14.277 21.5373 15.9046 21.6924 17.9529 21.6197Z" fill="#463929"/>
<path d="M24.2768 27.7218C27.903 31.749 34.8247 39.5068 34.9495 45.1831C32.3539 42.8326 32.0646 42.2622 30.2667 39.0637C29.3197 37.6598 27.0201 35.181 25.847 33.8363L22.5228 29.0071L24.2768 27.7218Z" fill="#616D45" fill-opacity="0.0862745"/>
<path d="M25.847 33.8363C27.0201 35.181 29.3197 37.6598 30.2667 39.0637L27.0521 42.4995L22.1458 35.8394L25.847 33.8363Z" fill="#463929"/>
<path d="M47.0306 58.821L50.4763 61.7754C52.3087 63.0894 54.9871 64.7279 56.2537 66.5912L56.2647 67.108C52.0659 66.6754 49.6845 64.2599 46.2303 61.5773L47.0306 58.821Z" fill="#616D45" fill-opacity="0.0862745"/>
<path d="M40.7076 52.159L41.857 51.8106C42.4836 52.6299 46.8358 58.6295 47.0306 58.821L46.2303 61.5773C44.3751 59.5636 42.2973 56.8581 40.5213 54.677L40.7076 52.159Z" fill="#616D45" fill-opacity="0.196078"/>
<path d="M17.9529 21.6197L19.1597 21.3651C20.5654 22.8341 21.9577 24.2362 23.2615 25.8249L24.2768 27.7218L22.5228 29.0071C20.2442 26.0565 19.6851 25.0344 17.9529 21.6197Z" fill="#4B4841" fill-opacity="0.513725"/>
<path d="M35.227 88.1582C35.286 92.2773 34.8813 93.1626 37.7755 96.5764L36.0458 98.2704L33.3903 92.7808C34.3736 91.4179 34.6679 89.8933 35.227 88.1582Z" fill="#010202" fill-opacity="0.498039"/>
<path d="M5.44855 80.8225C3.72991 80.5478 3.72824 80.4617 2.0661 79.8291L2.58472 78.9524L5.15759 78.4949L5.44855 80.8225Z" fill="#040205" fill-opacity="0.572549"/>
</svg>
