<svg width="125" height="115" viewBox="0 0 125 115" fill="none" xmlns="http://www.w3.org/2000/svg">
<path d="M107.906 35.9093C110.125 34.1263 115.114 30.9681 117.634 29.2502L121.313 31.1997C119.704 34.1148 118.292 36.9286 116.288 39.5088C112.126 45.4022 108.171 48.7959 103.64 53.9668C99.8246 55.59 98.408 56.5997 94.4319 55.2608C89.367 52.3906 85.4312 56.1211 80.8614 59.3502C78.851 61.896 77.3314 61.7591 74.2044 62.3946L73.1048 64.9843C72.7034 65.5107 71.7379 66.4668 71.2539 66.975L69.2063 65.705C67.6487 62.7075 67.1722 61.6347 66.7666 58.1864L65.2907 58.3568C62.6394 59.0784 60.6545 59.756 58.0631 60.7236L56.453 59.6469L56.8622 57.9529C60.8155 57.8036 63.8133 53.1562 68.0103 51.7302C72.5692 50.1808 80.0022 50.8249 84.2086 48.9002C92.9418 44.9027 98.7215 39.7116 107.906 35.9093ZM114.93 38.3641L110.928 38.4474C108.683 41.0505 108.372 40.4926 108.267 43.1943C111.921 43.113 112.793 41.5071 114.93 38.3641ZM96.5172 45.6329L93.6433 46.8119L93.2351 48.4074C95.1367 49.463 95.4816 49.4744 97.5738 48.0283C100.402 46.6177 101.51 46.4598 103.076 43.6652C100.894 42.7751 99.2309 44.3323 96.5172 45.6329Z" fill="#4B4841"/>
<path d="M110.928 38.4474L114.93 38.3641C112.793 41.5071 111.921 43.113 108.267 43.1943C108.372 40.4926 108.683 41.0505 110.928 38.4474Z" fill="#463929" fill-opacity="0.737255"/>
<path d="M107.906 35.9093C110.125 34.1263 115.114 30.9681 117.634 29.2502L121.313 31.1997C119.704 34.1148 118.292 36.9286 116.288 39.5088L114.93 38.3641L110.928 38.4474L107.906 35.9093Z" fill="#2F3224"/>
<path d="M74.2044 62.3946C71.2158 61.7859 70.8556 61.6711 68.5779 59.4124L68.5427 58.2218C72.0677 55.7737 76.1449 56.6418 80.1582 57.1911L80.8614 59.3502C78.851 61.896 77.3314 61.7591 74.2044 62.3946Z" fill="#040604"/>
<path d="M96.5172 45.6329C99.2309 44.3323 100.894 42.7751 103.076 43.6652C101.51 46.4598 100.402 46.6177 97.5738 48.0283L96.5172 45.6329Z" fill="#616D45" fill-opacity="0.501961"/>
<path d="M97.5738 48.0283C95.4816 49.4744 95.1367 49.463 93.2351 48.4074L93.6433 46.8119L96.5172 45.6329L97.5738 48.0283Z" fill="#616D45" fill-opacity="0.360784"/>
<path d="M47.8043 56.703C51.831 61.1667 53.3463 65.6409 58.5258 66.2151C61.7607 64.6168 63.1361 61.6835 65.2907 58.3568L66.7666 58.1864C67.1722 61.6347 67.6487 62.7075 69.2063 65.705L71.2539 66.975C71.7379 66.4668 72.7034 65.5107 73.1048 64.9843L77.2286 64.7164L79.6926 67.8622C70.3076 73.77 70.6279 76.1578 73.8198 86.9485L74.7154 86.8701C76.1735 82.0781 76.839 78.8797 76.7664 73.6743C78.378 72.2416 77.8855 72.7087 80.6296 72.9919L81.7166 74.1988C81.6568 77.0871 81.6458 76.9369 80.4736 79.5381L81.031 81.1995L80.7451 83.6745C76.0083 99.481 84.4387 99.7126 86.2669 113.747L85.5045 114.084C81.159 109.028 79.4328 102.987 75.9753 97.3698C73.3501 93.1052 70.2073 88.5688 67.4328 84.3406C64.537 84.0917 56.9633 83.9635 55.2767 81.7441C58.445 81.0005 64.5867 80.9517 66.2202 79.2376C59.9292 67.9091 47.2923 75.1252 42.354 70.6615C41.8505 65.238 45.0703 60.8403 47.8043 56.703ZM68.8216 72.0483L69.4727 70.1457C68.9921 70.1466 68.2053 70.0768 67.8123 70.2395L66.7 71.8999L67.5409 72.6742L68.8216 72.0483Z" fill="#616D45"/>
<path d="M67.8123 70.2395C68.2053 70.0768 68.9921 70.1466 69.4727 70.1457L68.8216 72.0483L67.5409 72.6742L66.7 71.8999L67.8123 70.2395Z" fill="#616D45" fill-opacity="0.0156863"/>
<path d="M56.453 59.6469C54.2385 57.0581 50.8436 54.2865 47.6239 53.8003C44.6631 54.3669 43.2657 56.437 40.977 58.8267C31.6316 43.825 16.7196 32.9712 9.41745 18.7275C17.1732 26.9054 28.131 34.9676 36.65 42.689C37.6552 43.5992 39.2314 41.5272 41.9206 44.9496C41.2165 46.5028 41.5201 45.9104 40.7207 47.3718L40.1606 48.3815C40.8125 51.7953 40.0966 50.4679 41.9662 52.7495C44.3645 51.2297 41.3971 49.6802 43.6579 46.9938C47.656 48.7327 54.6536 53.6501 56.8622 57.9529L56.453 59.6469Z" fill="#463929"/>
<path d="M94.4319 55.2608C98.408 56.5997 99.8246 55.59 103.64 53.9668C98.5174 59.4421 86.5444 65.883 79.6926 67.8622L77.2286 64.7164L81.9258 62.1678C86.8329 58.218 88.689 57.6017 94.4319 55.2608Z" fill="#040205"/>
<path d="M81.031 81.1995C82.9469 79.941 83.0684 79.6118 83.9952 77.4853C89.8148 79.4453 102.338 85.4957 107.488 88.9047L107.698 89.7412C102.726 88.5544 98.4932 86.9294 93.3372 85.6632C86.8911 84.0822 85.1412 86.5494 80.7451 83.6745L81.031 81.1995Z" fill="#040604" fill-opacity="0.980392"/>
<path d="M15.2279 19.7247C11.1202 17.3445 -0.883489 5.45803 0.0517267 0L1.57236 0.425892C2.99331 2.54288 3.70079 3.83392 4.90671 6.12605C8.26724 10.2327 22.6151 22.3901 22.3022 26.0795L20.958 26.1044L15.2279 19.7247Z" fill="#616D45" fill-opacity="0.988235"/>
<path d="M80.8614 59.3502C85.4312 56.1211 89.367 52.3906 94.4319 55.2608C88.689 57.6017 86.8329 58.218 81.9258 62.1678L80.8614 59.3502Z" fill="#616D45" fill-opacity="0.819608"/>
<path d="M117.634 29.2502C119.904 27.0413 121.512 24.9176 124.35 24.3405L124.674 25.8766C123.59 27.6806 122.469 29.455 121.313 31.1997L117.634 29.2502Z" fill="#616D45" fill-opacity="0.980392"/>
<path d="M80.8614 59.3502L81.9258 62.1678L77.2286 64.7164L73.1048 64.9843L74.2044 62.3946C77.3314 61.7591 78.851 61.896 80.8614 59.3502Z" fill="#403F3E" fill-opacity="0.87451"/>
<path d="M4.90671 6.12605L7.28659 2.41079C8.54985 2.58689 9.67046 2.72567 10.927 2.99364L11.2592 6.05811C9.27919 7.26495 7.21481 6.14231 4.90671 6.12605Z" fill="#36322F" fill-opacity="0.0470588"/>
</svg>
