<svg width="601" height="161" viewBox="0 0 601 161" fill="none" xmlns="http://www.w3.org/2000/svg">
<mask id="mask0_108_12356" style="mask-type:luminance" maskUnits="userSpaceOnUse" x="0" y="0" width="601" height="161">
<path d="M600.582 -0.000106812H0V160.87H600.582V-0.000106812Z" fill="white"/>
</mask>
<g mask="url(#mask0_108_12356)">
<mask id="mask1_108_12356" style="mask-type:luminance" maskUnits="userSpaceOnUse" x="0" y="5" width="599" height="135">
<path d="M0.376953 5.34131H598.948V139.421H0.376953V5.34131Z" fill="white"/>
</mask>
<g mask="url(#mask1_108_12356)">
<mask id="mask2_108_12356" style="mask-type:luminance" maskUnits="userSpaceOnUse" x="0" y="-1" width="601" height="141">
<path d="M600.582 -0.000198364H0V139.421H600.582V-0.000198364Z" fill="white"/>
</mask>
<g mask="url(#mask2_108_12356)">
<mask id="mask3_108_12356" style="mask-type:luminance" maskUnits="userSpaceOnUse" x="0" y="37" width="70" height="76">
<path d="M0.376953 37.5361H69.7103V112.609H0.376953V37.5361Z" fill="white"/>
</mask>
<g mask="url(#mask3_108_12356)">
<path d="M65.0582 41.344V43.3549C63.8224 43.5853 62.5027 44.3184 61.1203 45.5333C59.7168 46.7692 58.46 48.8639 57.3499 51.8173L34.4762 110.803C34.3505 110.803 34.2248 110.803 34.0572 110.803C33.9315 110.803 33.8268 110.803 33.7221 110.803C33.5964 110.803 33.4707 110.803 33.3032 110.803C33.1775 110.803 33.0727 110.803 32.968 110.803L9.17265 49.5551C8.2091 47.1043 7.11987 45.4915 5.90497 44.6955C4.66912 43.8576 3.51706 43.4177 2.46973 43.3549V41.344C3.74747 41.4069 5.33941 41.4907 7.24556 41.5954C9.19359 41.6582 11.0578 41.6792 12.8593 41.6792C15.4147 41.6792 17.8027 41.6582 19.9811 41.5954C22.2014 41.4907 24.0029 41.4069 25.3434 41.344V43.3549C23.165 43.4177 21.4893 43.6691 20.3162 44.109C19.1851 44.5698 18.5777 45.3658 18.4729 46.5388C18.3473 47.6699 18.7453 49.3037 19.646 51.4822L37.7438 99.4918L36.1519 101.168L53.0768 57.1797C54.4592 53.6606 55.1086 50.9376 55.0039 48.9686C54.941 46.9577 54.1869 45.5333 52.7416 44.6955C51.3382 43.8576 49.2645 43.4177 46.5414 43.3549V41.344C48.4266 41.4069 50.3537 41.4907 52.3227 41.5954C54.2707 41.6582 56.0931 41.6792 57.7688 41.6792C59.4445 41.6792 60.827 41.6582 61.9581 41.5954C63.0683 41.4907 64.0947 41.4069 65.0582 41.344Z" fill="#F7F5F0"/>
</g>
<path d="M117.103 41.3441C116.81 43.6482 116.621 45.8686 116.516 48.047C116.454 50.1836 116.433 51.7755 116.433 52.8229C116.433 53.9959 116.454 55.1479 116.516 56.2581C116.558 57.3264 116.621 58.1852 116.684 58.8555H114.422C114.024 55.0642 113.458 52.0478 112.746 49.8066C112.076 47.5862 110.861 45.9943 109.143 45.0307C107.405 44.0881 104.828 43.6064 101.435 43.6064H93.3076C91.1292 43.6064 89.4535 43.8158 88.2804 44.1929C87.1493 44.528 86.3952 45.2611 86.0182 46.3713C85.6202 47.5024 85.4317 49.2619 85.4317 51.6499V99.9947C85.4317 102.341 85.6202 104.1 86.0182 105.273C86.3952 106.404 87.1493 107.158 88.2804 107.535C89.4535 107.871 91.1292 108.038 93.3076 108.038H100.429C104.493 108.038 107.593 107.515 109.73 106.446C111.845 105.336 113.354 103.514 114.254 101C115.197 98.4865 115.93 95.1141 116.433 90.8619H118.611C118.444 92.6005 118.36 94.9256 118.36 97.8162C118.36 99.0521 118.381 100.833 118.444 103.179C118.548 105.483 118.737 107.85 119.03 110.3C115.721 110.196 111.992 110.133 107.803 110.133C103.655 110.091 99.9687 110.049 96.7429 110.049C95.2766 110.049 93.4333 110.049 91.213 110.049C88.9717 110.049 86.5419 110.091 83.9235 110.133C81.3471 110.133 78.7288 110.175 76.0476 110.217C73.4083 110.217 70.8948 110.259 68.5068 110.3V108.373C70.6853 108.206 72.3191 107.933 73.4502 107.535C74.6232 107.158 75.3983 106.404 75.7963 105.273C76.1733 104.1 76.3828 102.341 76.3828 99.9947V51.6499C76.3828 49.2619 76.1733 47.5024 75.7963 46.3713C75.3983 45.2611 74.6232 44.5071 73.4502 44.1091C72.3191 43.6692 70.6853 43.4178 68.5068 43.355V41.3441C70.8948 41.407 73.4083 41.4698 76.0476 41.5117C78.7288 41.5745 81.3471 41.6374 83.9235 41.6793C86.5419 41.6793 88.9717 41.6793 91.213 41.6793C93.4333 41.6793 95.2766 41.6793 96.7429 41.6793C99.6964 41.6793 103.069 41.6793 106.881 41.6793C110.672 41.6374 114.087 41.5117 117.103 41.3441ZM100.346 74.6911C100.346 74.6911 100.346 75.0263 100.346 75.6966C100.346 76.325 100.346 76.6182 100.346 76.6182H82.4992C82.4992 76.6182 82.4992 76.325 82.4992 75.6966C82.4992 75.0263 82.4992 74.6911 82.4992 74.6911H100.346ZM103.111 61.788C102.88 65.5375 102.776 68.3862 102.776 70.3342C102.817 72.2404 102.859 73.9999 102.859 75.6128C102.859 77.2466 102.88 79.0271 102.943 80.9751C102.985 82.9441 103.153 85.751 103.446 89.4376H101.184C100.953 87.3848 100.639 85.3739 100.262 83.4049C99.9268 81.3941 99.1308 79.7812 97.9159 78.5453C96.7429 77.2676 94.732 76.6182 91.8833 76.6182V74.6911C93.9989 74.6911 95.6118 74.2513 96.7429 73.3506C97.9159 72.4708 98.7538 71.3397 99.2565 69.9991C99.7592 68.6585 100.094 67.276 100.262 65.8098C100.471 64.3016 100.702 62.961 100.932 61.788H103.111Z" fill="#F7F5F0"/>
<path d="M127.804 41.3441C129.144 41.4069 130.904 41.4907 133.082 41.5954C135.303 41.6583 137.523 41.6792 139.701 41.6792C142.718 41.6792 145.608 41.6583 148.415 41.5954C151.201 41.4907 153.191 41.4279 154.364 41.4279C159.601 41.4279 163.958 42.1819 167.435 43.6901C170.891 45.1982 173.488 47.251 175.227 49.8065C176.944 52.3829 177.824 55.2526 177.824 58.4365C177.824 60.4055 177.426 62.5002 176.651 64.7205C175.855 66.899 174.515 68.9727 172.629 70.9207C170.723 72.8269 168.105 74.4188 164.754 75.6965C161.444 76.9952 157.255 77.6236 152.186 77.6236H142.885V75.6127H151.264C155.83 75.6127 159.328 74.9006 161.737 73.4343C164.188 71.989 165.864 70.0619 166.764 67.653C167.644 65.2023 168.105 62.4583 168.105 59.442C168.105 54.3729 166.869 50.4349 164.418 47.6281C162.01 44.7793 157.841 43.3549 151.934 43.3549C148.96 43.3549 147.012 43.9205 146.069 45.0307C145.168 46.099 144.729 48.2984 144.729 51.6498V99.9946C144.729 102.341 144.917 104.1 145.315 105.273C145.692 106.404 146.446 107.158 147.577 107.535C148.75 107.933 150.426 108.206 152.605 108.373V110.3C151.096 110.196 149.211 110.133 146.991 110.133C144.75 110.091 142.508 110.049 140.288 110.049C137.711 110.049 135.303 110.091 133.082 110.133C130.904 110.133 129.144 110.196 127.804 110.3V108.373C129.982 108.206 131.616 107.933 132.747 107.535C133.92 107.158 134.695 106.404 135.093 105.273C135.47 104.1 135.68 102.341 135.68 99.9946V51.6498C135.68 49.2619 135.47 47.5024 135.093 46.3713C134.695 45.2611 133.92 44.507 132.747 44.109C131.616 43.6691 129.982 43.4178 127.804 43.3549V41.3441ZM143.304 75.9479C146.76 76.0736 149.504 76.1993 151.515 76.3668C153.526 76.5344 155.16 76.702 156.459 76.8695C157.736 76.9952 158.972 77.1209 160.145 77.2885C164.439 78.0216 167.539 79.3412 169.446 81.2264C171.394 83.1326 172.818 86.0861 173.719 90.1078L176.149 100.078C176.819 102.927 177.489 105.001 178.159 106.279C178.83 107.514 179.877 108.101 181.343 108.038C182.453 107.996 183.375 107.661 184.108 107.033C184.82 106.362 185.616 105.483 186.454 104.352L187.962 105.441C186.622 107.452 185.197 109.002 183.689 110.049C182.223 111.096 180.191 111.641 177.573 111.641C175.164 111.641 173.048 110.929 171.205 109.546C169.404 108.101 168.042 105.315 167.1 101.168L165.005 91.4484C164.377 88.6625 163.706 86.2327 162.994 84.159C162.261 82.1062 161.235 80.5143 159.894 79.3831C158.553 78.2101 156.563 77.6236 153.945 77.6236H143.472L143.304 75.9479Z" fill="#F7F5F0"/>
<path d="M211.674 40.3386C214.963 40.3386 217.456 40.7156 219.131 41.4278C220.807 42.161 222.273 42.9988 223.572 43.9414C224.347 44.4023 224.996 44.7374 225.499 44.9469C226.002 45.1773 226.463 45.282 226.924 45.282C227.531 45.282 227.971 44.9259 228.264 44.1928C228.599 43.4806 228.851 42.4123 229.018 41.0089H231.28C231.218 42.0772 231.134 43.3968 231.029 44.9469C230.903 46.455 230.82 48.4659 230.778 50.9795C230.778 53.4512 230.778 56.7398 230.778 60.8663H228.516C228.348 57.7453 227.678 54.7499 226.505 51.9011C225.332 49.0524 223.614 46.7483 221.394 44.9469C219.152 43.1036 216.22 42.1819 212.596 42.1819C209.119 42.1819 206.27 43.2292 204.05 45.282C201.809 47.3557 200.698 50.0578 200.698 53.4093C200.698 56.3837 201.452 58.8554 202.961 60.8663C204.469 62.8353 206.438 64.6157 208.909 66.2286C211.423 67.7996 214.125 69.4754 217.037 71.2558C220.43 73.3295 223.446 75.4033 226.086 77.456C228.704 79.4669 230.778 81.7291 232.286 84.2427C233.836 86.7144 234.632 89.6679 234.632 93.1241C234.632 97.3134 233.668 100.791 231.783 103.514C229.877 106.195 227.363 108.248 224.242 109.63C221.163 110.971 217.728 111.641 213.937 111.641C210.522 111.641 207.82 111.243 205.809 110.468C203.798 109.693 202.06 108.876 200.615 108.038C199.148 107.158 198.038 106.698 197.263 106.698C196.635 106.698 196.174 107.075 195.839 107.787C195.546 108.52 195.336 109.588 195.168 110.971H192.906C193.074 109.63 193.158 108.038 193.158 106.195C193.2 104.31 193.241 101.88 193.241 98.9054C193.283 95.9519 193.325 92.1815 193.325 87.5942H195.587C195.797 91.5112 196.509 95.1769 197.682 98.5702C198.897 101.922 200.782 104.645 203.296 106.698C205.809 108.708 209.119 109.714 213.266 109.714C215.382 109.714 217.393 109.295 219.299 108.457C221.247 107.577 222.839 106.174 224.075 104.268C225.29 102.32 225.918 99.8061 225.918 96.7269C225.918 94.1086 225.269 91.8254 223.991 89.8564C222.755 87.8456 220.996 85.9813 218.712 84.2427C216.408 82.5251 213.769 80.7656 210.753 78.9642C207.674 77.079 204.804 75.1519 202.123 73.1829C199.483 71.2349 197.368 68.9936 195.755 66.48C194.184 63.9245 193.409 60.8244 193.409 57.1797C193.409 53.3255 194.268 50.1835 196.006 47.7118C197.724 45.1982 199.986 43.3549 202.793 42.1819C205.579 40.967 208.532 40.3386 211.674 40.3386Z" fill="#F7F5F0"/>
<path d="M270.791 40.8414L294.587 102.089C295.529 104.603 296.619 106.279 297.854 107.117C299.069 107.913 300.221 108.331 301.29 108.373V110.3C299.991 110.196 298.399 110.133 296.514 110.133C294.608 110.091 292.743 110.049 290.9 110.049C288.324 110.049 285.915 110.091 283.695 110.133C281.516 110.133 279.757 110.196 278.416 110.3V108.373C281.705 108.206 283.799 107.619 284.7 106.614C285.643 105.608 285.475 103.472 284.197 100.162L266.016 51.8175L267.608 50.5607L250.683 94.5486C249.614 97.125 248.965 99.3035 248.756 101.084C248.588 102.885 248.776 104.31 249.342 105.357C249.887 106.362 250.85 107.117 252.191 107.619C253.531 108.08 255.207 108.331 257.218 108.373V110.3C255.375 110.196 253.448 110.133 251.437 110.133C249.468 110.091 247.666 110.049 245.991 110.049C244.357 110.049 242.974 110.091 241.801 110.133C240.67 110.133 239.644 110.196 238.701 110.3V108.373C239.979 108.038 241.299 107.284 242.639 106.111C244.022 104.896 245.278 102.822 246.41 99.9109L269.283 40.8414C269.493 40.8414 269.744 40.8414 270.037 40.8414C270.31 40.8414 270.561 40.8414 270.791 40.8414ZM282.689 82.232V84.2428H253.699L254.621 82.232H282.689Z" fill="#F7F5F0"/>
<path d="M386.96 41.3441V43.3549C385.724 43.5854 384.404 44.3185 383.022 45.5334C381.618 46.7692 380.361 48.8639 379.251 51.8174L356.378 110.803C356.252 110.803 356.126 110.803 355.959 110.803C355.833 110.803 355.728 110.803 355.623 110.803C355.498 110.803 355.372 110.803 355.205 110.803C355.079 110.803 354.974 110.803 354.869 110.803L331.074 49.5551C330.11 47.1044 329.021 45.4915 327.806 44.6955C326.57 43.8577 325.418 43.4178 324.371 43.3549V41.3441C325.649 41.4069 327.241 41.4907 329.147 41.5954C331.095 41.6583 332.959 41.6792 334.761 41.6792C337.316 41.6792 339.704 41.6583 341.882 41.5954C344.103 41.4907 345.904 41.4069 347.245 41.3441V43.3549C345.066 43.4178 343.391 43.6691 342.218 44.109C341.086 44.5699 340.479 45.3658 340.374 46.5388C340.249 47.6699 340.647 49.3038 341.547 51.4822L359.645 99.4919L358.053 101.168L374.978 57.1797C376.361 53.6607 377.01 50.9376 376.905 48.9686C376.842 46.9578 376.088 45.5334 374.643 44.6955C373.24 43.8577 371.166 43.4178 368.443 43.3549V41.3441C370.328 41.4069 372.255 41.4907 374.224 41.5954C376.172 41.6583 377.994 41.6792 379.67 41.6792C381.346 41.6792 382.728 41.6583 383.859 41.5954C384.97 41.4907 385.996 41.4069 386.96 41.3441Z" fill="#F7F5F0"/>
<path d="M415.205 41.3441V43.3549C413.027 43.4178 411.351 43.6691 410.178 44.109C409.047 44.507 408.293 45.2611 407.916 46.3713C407.518 47.5024 407.329 49.2619 407.329 51.6498V99.9946C407.329 102.341 407.518 104.1 407.916 105.273C408.293 106.404 409.047 107.158 410.178 107.535C411.351 107.933 413.027 108.206 415.205 108.373V110.3C413.697 110.196 411.812 110.133 409.591 110.133C407.35 110.091 405.109 110.049 402.888 110.049C400.312 110.049 397.903 110.091 395.683 110.133C393.504 110.133 391.745 110.196 390.404 110.3V108.373C392.583 108.206 394.217 107.933 395.348 107.535C396.521 107.158 397.296 106.404 397.694 105.273C398.071 104.1 398.28 102.341 398.28 99.9946V51.6498C398.28 49.2619 398.071 47.5024 397.694 46.3713C397.296 45.2611 396.521 44.507 395.348 44.109C394.217 43.6691 392.583 43.4178 390.404 43.3549V41.3441C391.745 41.4069 393.504 41.4907 395.683 41.5954C397.903 41.6583 400.312 41.6792 402.888 41.6792C405.109 41.6792 407.35 41.6583 409.591 41.5954C411.812 41.4907 413.697 41.4069 415.205 41.3441Z" fill="#F7F5F0"/>
<path d="M448.216 41.3441V43.3549C446.037 43.4178 444.362 43.6691 443.189 44.109C442.058 44.507 441.303 45.2611 440.926 46.3713C440.528 47.5024 440.34 49.2619 440.34 51.6498V99.9946C440.34 102.341 440.528 104.1 440.926 105.273C441.303 106.404 442.058 107.158 443.189 107.535C444.362 107.871 446.037 108.038 448.216 108.038H455.338C458.396 108.038 460.889 107.745 462.795 107.116C464.68 106.446 466.188 105.42 467.319 104.016C468.492 102.634 469.351 100.749 469.917 98.4027C470.524 96.0567 471.006 93.2079 471.341 89.8565H473.519C473.352 91.8673 473.268 94.5275 473.268 97.8162C473.268 99.052 473.289 100.832 473.352 103.179C473.457 105.483 473.645 107.85 473.938 110.3C470.629 110.196 466.9 110.133 462.711 110.133C458.563 110.091 454.877 110.049 451.651 110.049C450.185 110.049 448.342 110.049 446.121 110.049C443.88 110.049 441.45 110.091 438.832 110.133C436.255 110.133 433.637 110.175 430.956 110.217C428.317 110.217 425.803 110.258 423.415 110.3V108.373C425.593 108.206 427.227 107.933 428.358 107.535C429.531 107.158 430.306 106.404 430.704 105.273C431.081 104.1 431.291 102.341 431.291 99.9946V51.6498C431.291 49.2619 431.081 47.5024 430.704 46.3713C430.306 45.2611 429.531 44.507 428.358 44.109C427.227 43.6691 425.593 43.4178 423.415 43.3549V41.3441C424.756 41.4069 426.515 41.4907 428.694 41.5954C430.914 41.6583 433.323 41.6792 435.899 41.6792C438.12 41.6792 440.361 41.6583 442.602 41.5954C444.822 41.4907 446.708 41.4069 448.216 41.3441Z" fill="#F7F5F0"/>
<path d="M505.466 41.3441V43.3549C503.287 43.4178 501.612 43.6691 500.439 44.109C499.308 44.507 498.553 45.2611 498.176 46.3713C497.778 47.5024 497.59 49.2619 497.59 51.6498V99.9946C497.59 102.341 497.778 104.1 498.176 105.273C498.553 106.404 499.308 107.158 500.439 107.535C501.612 107.871 503.287 108.038 505.466 108.038H512.588C515.646 108.038 518.139 107.745 520.045 107.116C521.93 106.446 523.438 105.42 524.569 104.016C525.742 102.634 526.601 100.749 527.167 98.4027C527.774 96.0567 528.256 93.2079 528.591 89.8565H530.769C530.602 91.8673 530.518 94.5275 530.518 97.8162C530.518 99.052 530.539 100.832 530.602 103.179C530.707 105.483 530.895 107.85 531.188 110.3C527.879 110.196 524.15 110.133 519.961 110.133C515.813 110.091 512.127 110.049 508.901 110.049C507.435 110.049 505.592 110.049 503.371 110.049C501.13 110.049 498.7 110.091 496.082 110.133C493.505 110.133 490.887 110.175 488.206 110.217C485.567 110.217 483.053 110.258 480.665 110.3V108.373C482.843 108.206 484.477 107.933 485.608 107.535C486.781 107.158 487.556 106.404 487.954 105.273C488.331 104.1 488.541 102.341 488.541 99.9946V51.6498C488.541 49.2619 488.331 47.5024 487.954 46.3713C487.556 45.2611 486.781 44.507 485.608 44.109C484.477 43.6691 482.843 43.4178 480.665 43.3549V41.3441C482.006 41.4069 483.765 41.4907 485.944 41.5954C488.164 41.6583 490.573 41.6792 493.149 41.6792C495.37 41.6792 497.611 41.6583 499.852 41.5954C502.072 41.4907 503.958 41.4069 505.466 41.3441Z" fill="#F7F5F0"/>
<mask id="mask4_108_12356" style="mask-type:luminance" maskUnits="userSpaceOnUse" x="530" y="37" width="69" height="76">
<path d="M530.871 37.5361H598.948V112.609H530.871V37.5361Z" fill="white"/>
</mask>
<g mask="url(#mask4_108_12356)">
<path d="M565.231 40.8414L589.026 102.089C589.969 104.603 591.058 106.279 592.294 107.116C593.509 107.912 594.661 108.331 595.729 108.373V110.3C594.43 110.196 592.838 110.133 590.953 110.133C589.047 110.091 587.183 110.049 585.34 110.049C582.763 110.049 580.354 110.091 578.134 110.133C575.956 110.133 574.196 110.196 572.855 110.3V108.373C576.144 108.206 578.239 107.619 579.139 106.614C580.082 105.608 579.914 103.472 578.637 100.162L560.455 51.8174L562.047 50.5606L545.122 94.5485C544.054 97.1249 543.404 99.3034 543.195 101.084C543.027 102.885 543.216 104.31 543.782 105.357C544.326 106.362 545.29 107.116 546.63 107.619C547.971 108.08 549.647 108.331 551.657 108.373V110.3C549.814 110.196 547.887 110.133 545.876 110.133C543.907 110.091 542.106 110.049 540.43 110.049C538.796 110.049 537.414 110.091 536.241 110.133C535.11 110.133 534.083 110.196 533.141 110.3V108.373C534.418 108.038 535.738 107.284 537.079 106.111C538.461 104.896 539.718 102.822 540.849 99.9108L563.723 40.8414C563.932 40.8414 564.184 40.8414 564.477 40.8414C564.749 40.8414 565 40.8414 565.231 40.8414ZM577.129 82.2319V84.2428H548.138L549.06 82.2319H577.129Z" fill="#F7F5F0"/>
</g>
</g>
</g>
<path d="M250.94 130.001V138.547H251.023C251.463 137.772 251.987 137.185 252.615 136.787C253.223 136.41 253.956 136.201 254.794 136.201C255.632 136.201 256.407 136.494 257.14 137.039C257.852 137.541 258.438 138.254 258.899 139.133C259.339 139.971 259.57 140.935 259.57 141.982C259.57 143.218 259.276 144.37 258.732 145.417C258.166 146.423 257.391 147.24 256.386 147.847C255.422 148.392 254.375 148.685 253.202 148.685C252.531 148.685 251.819 148.559 251.107 148.35C250.437 148.078 249.683 147.68 248.845 147.177V134.106C248.845 133.268 248.719 132.682 248.51 132.347C248.342 132.011 248.028 131.844 247.588 131.844C247.358 131.844 247.169 131.886 247.002 131.928L246.834 131.509L250.437 130.001H250.94ZM253.788 147.847C254.396 147.847 254.982 147.638 255.548 147.177C256.092 146.737 256.553 146.15 256.888 145.417C257.224 144.642 257.391 143.783 257.391 142.82C257.391 141.94 257.224 141.123 256.888 140.39C256.595 139.678 256.155 139.112 255.548 138.714C254.982 138.275 254.333 138.044 253.621 138.044C253.118 138.044 252.636 138.17 252.196 138.379C251.798 138.547 251.379 138.861 250.94 139.301V146.507C251.777 147.407 252.72 147.847 253.788 147.847Z" fill="#F7F5F0"/>
<path d="M266.117 136.955C265.615 136.955 265.238 137.039 265.028 137.206C264.861 137.332 264.777 137.542 264.777 137.877C264.777 138.212 264.819 138.526 264.944 138.798C265.049 139.029 265.112 139.134 265.112 139.134L267.877 145.418L270.391 138.547C270.558 138.17 270.642 137.877 270.642 137.709C270.642 137.437 270.516 137.269 270.307 137.206C270.139 137.102 269.825 137.018 269.385 136.955V136.452H272.82V136.955C272.485 137.018 272.192 137.165 271.982 137.374C271.815 137.604 271.605 137.961 271.396 138.463L267.458 149.188C266.955 150.403 266.369 151.471 265.698 152.372C265.07 153.314 264.19 153.796 263.017 153.796C262.515 153.796 262.096 153.65 261.761 153.377C261.467 153.084 261.342 152.749 261.342 152.372C261.342 152.037 261.446 151.743 261.677 151.534C261.949 151.304 262.284 151.199 262.682 151.199C262.892 151.199 263.101 151.22 263.269 151.283C263.478 151.387 263.625 151.45 263.688 151.45C264.023 151.618 264.274 151.702 264.442 151.702C264.882 151.702 265.28 151.387 265.615 150.78C265.992 150.151 266.411 149.272 266.871 148.099L263.269 139.888C262.871 139.113 262.556 138.547 262.347 138.212C262.179 137.877 261.97 137.604 261.761 137.374C261.53 137.165 261.216 137.018 260.839 136.955V136.452H266.117V136.955Z" fill="#F7F5F0"/>
<path d="M282.494 144.915L289.029 130.001H289.532L296.402 145.92C296.675 146.486 296.926 146.905 297.157 147.177C297.366 147.47 297.596 147.659 297.827 147.763C298.099 147.889 298.455 147.931 298.916 147.931V148.35H291.71V147.931C292.318 147.931 292.758 147.826 293.051 147.596C293.386 147.386 293.554 147.072 293.554 146.674C293.554 146.339 293.428 145.962 293.219 145.501L291.878 142.485H284.84L283.332 145.836C283.164 146.171 283.08 146.465 283.08 146.674C283.08 147.512 283.709 147.931 285.007 147.931V148.35H279.896V147.931C280.336 147.889 280.672 147.763 280.902 147.596C281.174 147.386 281.426 147.072 281.656 146.674C281.865 146.297 282.159 145.711 282.494 144.915ZM291.459 141.479L288.359 134.358L285.259 141.479H291.459Z" fill="#F7F5F0"/>
<path d="M314.404 135.363C314.404 136.431 314.006 137.353 313.231 138.128C312.498 138.924 311.387 139.51 309.879 139.887L313.985 144.915C314.487 145.543 314.906 146.046 315.242 146.423C315.577 146.758 315.996 147.093 316.498 147.428C317.001 147.721 317.546 147.889 318.174 147.931V148.35H313.566L306.947 140.139H305.271V145.836C305.271 146.569 305.459 147.093 305.857 147.428C306.234 147.763 306.863 147.931 307.701 147.931H307.785V148.35H300.076V147.931C300.914 147.931 301.521 147.805 301.919 147.512C302.297 147.177 302.506 146.653 302.506 145.92V133.185C302.506 132.514 302.297 132.053 301.919 131.76C301.521 131.425 300.914 131.257 300.076 131.257V130.755H308.287C309.963 130.755 311.387 131.153 312.56 131.928C313.775 132.661 314.404 133.813 314.404 135.363ZM305.271 132.179V139.217H305.941C307.659 139.217 308.958 138.882 309.795 138.212C310.675 137.541 311.136 136.62 311.136 135.447C311.136 134.399 310.801 133.499 310.131 132.766C309.46 132.053 308.497 131.676 307.282 131.676C306.612 131.676 305.941 131.844 305.271 132.179Z" fill="#F7F5F0"/>
<path d="M327.042 131.257C326.246 131.257 325.723 131.32 325.45 131.425C325.157 131.551 325.031 131.739 325.031 132.011C325.031 132.409 325.283 132.975 325.785 133.687L329.723 139.636L332.907 134.693C333.787 133.31 334.248 132.409 334.248 132.011C334.248 131.739 334.08 131.551 333.745 131.425C333.452 131.32 333.012 131.257 332.404 131.257V130.755H338.27V131.257C337.432 131.257 336.719 131.509 336.175 132.011C335.609 132.472 334.918 133.331 334.08 134.609L330.226 140.809V145.836C330.226 146.402 330.31 146.842 330.477 147.177C330.687 147.47 330.98 147.659 331.315 147.763C331.692 147.826 332.237 147.889 332.907 147.931V148.35H324.696V147.931H324.947C325.827 147.931 326.477 147.763 326.875 147.428C327.252 147.093 327.461 146.465 327.461 145.501V140.977L322.099 133.017C321.701 132.514 321.387 132.158 321.177 131.928C320.947 131.655 320.695 131.488 320.423 131.425C320.13 131.32 319.753 131.257 319.25 131.257V130.755H327.042V131.257Z" fill="#F7F5F0"/>
<path d="M341.523 144.915L348.059 130.001H348.561L355.432 145.92C355.704 146.486 355.955 146.905 356.186 147.177C356.395 147.47 356.626 147.659 356.856 147.763C357.128 147.889 357.484 147.931 357.945 147.931V148.35H350.74V147.931C351.347 147.931 351.787 147.826 352.08 147.596C352.415 147.386 352.583 147.072 352.583 146.674C352.583 146.339 352.457 145.962 352.248 145.501L350.907 142.485H343.869L342.361 145.836C342.193 146.171 342.11 146.465 342.11 146.674C342.11 147.512 342.738 147.931 344.037 147.931V148.35H338.926V147.931C339.366 147.889 339.701 147.763 339.931 147.596C340.204 147.386 340.455 147.072 340.685 146.674C340.895 146.297 341.188 145.711 341.523 144.915ZM350.488 141.479L347.388 134.358L344.288 141.479H350.488Z" fill="#F7F5F0"/>
</g>
</svg>
