<svg width="206" height="56" viewBox="0 0 206 56" fill="none" xmlns="http://www.w3.org/2000/svg">
<mask id="mask0_146_6" style="mask-type:luminance" maskUnits="userSpaceOnUse" x="0" y="0" width="206" height="56">
<path d="M206 0H0V55.1786H206V0Z" fill="white"/>
</mask>
<g mask="url(#mask0_146_6)">
<mask id="mask1_146_6" style="mask-type:luminance" maskUnits="userSpaceOnUse" x="0" y="1" width="206" height="47">
<path d="M0.128906 1.83203H205.439V47.8214H0.128906V1.83203Z" fill="white"/>
</mask>
<g mask="url(#mask1_146_6)">
<mask id="mask2_146_6" style="mask-type:luminance" maskUnits="userSpaceOnUse" x="0" y="0" width="206" height="48">
<path d="M206 0H0V47.8214H206V0Z" fill="white"/>
</mask>
<g mask="url(#mask2_146_6)">
<mask id="mask3_146_6" style="mask-type:luminance" maskUnits="userSpaceOnUse" x="0" y="12" width="24" height="27">
<path d="M0.128906 12.875H23.9103V38.625H0.128906V12.875Z" fill="white"/>
</mask>
<g mask="url(#mask3_146_6)">
<path d="M22.3156 14.181V14.8708C21.8917 14.9498 21.439 15.2013 20.9648 15.618C20.4835 16.0419 20.0524 16.7603 19.6716 17.7734L11.8259 38.0055C11.7828 38.0055 11.7397 38.0055 11.6822 38.0055C11.6391 38.0055 11.6032 38.0055 11.5672 38.0055C11.5241 38.0055 11.481 38.0055 11.4235 38.0055C11.3804 38.0055 11.3445 38.0055 11.3086 38.0055L3.14676 16.9974C2.81627 16.1568 2.44266 15.6036 2.02595 15.3306C1.60205 15.0432 1.20689 14.8923 0.847656 14.8708V14.181C1.28592 14.2026 1.83196 14.2313 2.48577 14.2672C3.15395 14.2888 3.79339 14.296 4.41127 14.296C5.28781 14.296 6.10686 14.2888 6.85407 14.2672C7.61565 14.2313 8.23354 14.2026 8.69336 14.181V14.8708C7.94615 14.8923 7.37137 14.9785 6.96903 15.1294C6.58105 15.2875 6.3727 15.5605 6.33677 15.9628C6.29366 16.3508 6.43017 16.9112 6.73912 17.6584L12.9467 34.1258L12.4007 34.7006L18.2059 19.6127C18.6801 18.4056 18.9028 17.4716 18.8669 16.7963C18.8454 16.1065 18.5867 15.618 18.091 15.3306C17.6096 15.0432 16.8983 14.8923 15.9643 14.8708V14.181C16.6109 14.2026 17.2719 14.2313 17.9473 14.2672C18.6154 14.2888 19.2405 14.296 19.8153 14.296C20.3901 14.296 20.8643 14.2888 21.2522 14.2672C21.633 14.2313 21.9851 14.2026 22.3156 14.181Z" fill="#414833"/>
</g>
<path d="M40.1666 14.1812C40.066 14.9715 40.0013 15.733 39.9654 16.4803C39.9438 17.2131 39.9367 17.7591 39.9367 18.1184C39.9367 18.5207 39.9438 18.9159 39.9654 19.2967C39.9798 19.6631 40.0013 19.9577 40.0229 20.1876H39.2469C39.1104 18.8871 38.9164 17.8525 38.6722 17.0838C38.4422 16.3222 38.0255 15.7762 37.4364 15.4457C36.8401 15.1223 35.9563 14.9571 34.7924 14.9571H32.0047C31.2575 14.9571 30.6828 15.0289 30.2804 15.1583C29.8924 15.2732 29.6338 15.5247 29.5045 15.9055C29.368 16.2935 29.3033 16.897 29.3033 17.716V34.2983C29.3033 35.103 29.368 35.7065 29.5045 36.1089C29.6338 36.4969 29.8924 36.7555 30.2804 36.8848C30.6828 36.9998 31.2575 37.0573 32.0047 37.0573H34.4475C35.8414 37.0573 36.9047 36.8776 37.6376 36.5112C38.3632 36.1304 38.8805 35.5054 39.1895 34.6432C39.5128 33.781 39.7642 32.6243 39.9367 31.1658H40.6839C40.6264 31.7621 40.5977 32.5596 40.5977 33.5511C40.5977 33.975 40.6048 34.5857 40.6264 35.3904C40.6623 36.1807 40.727 36.9926 40.8276 37.8332C39.6924 37.7973 38.4135 37.7757 36.9766 37.7757C35.554 37.7614 34.2895 37.747 33.183 37.747C32.6801 37.747 32.0478 37.747 31.2863 37.747C30.5175 37.747 29.6841 37.7614 28.786 37.7757C27.9023 37.7757 27.0042 37.7901 26.0845 37.8045C25.1793 37.8045 24.3171 37.8188 23.498 37.8332V37.1722C24.2453 37.1147 24.8057 37.0213 25.1936 36.8848C25.596 36.7555 25.8618 36.4969 25.9983 36.1089C26.1276 35.7065 26.1995 35.103 26.1995 34.2983V17.716C26.1995 16.897 26.1276 16.2935 25.9983 15.9055C25.8618 15.5247 25.596 15.266 25.1936 15.1295C24.8057 14.9787 24.2453 14.8924 23.498 14.8709V14.1812C24.3171 14.2027 25.1793 14.2243 26.0845 14.2386C27.0042 14.2602 27.9023 14.2817 28.786 14.2961C29.6841 14.2961 30.5175 14.2961 31.2863 14.2961C32.0478 14.2961 32.6801 14.2961 33.183 14.2961C34.1961 14.2961 35.3528 14.2961 36.6604 14.2961C37.9609 14.2817 39.132 14.2386 40.1666 14.1812ZM34.4188 25.6192C34.4188 25.6192 34.4188 25.7342 34.4188 25.9641C34.4188 26.1796 34.4188 26.2802 34.4188 26.2802H28.2974C28.2974 26.2802 28.2974 26.1796 28.2974 25.9641C28.2974 25.7342 28.2974 25.6192 28.2974 25.6192H34.4188ZM35.3672 21.1934C35.2882 22.4795 35.2522 23.4566 35.2522 24.1248C35.2666 24.7786 35.281 25.3821 35.281 25.9353C35.281 26.4957 35.2882 27.1064 35.3097 27.7746C35.3241 28.45 35.3816 29.4127 35.4821 30.6772H34.7062C34.6272 29.9731 34.5194 29.2834 34.3901 28.608C34.2751 27.9183 34.0021 27.3651 33.5854 26.9412C33.183 26.5029 32.4933 26.2802 31.5162 26.2802V25.6192C32.2418 25.6192 32.7951 25.4683 33.183 25.1594C33.5854 24.8576 33.8728 24.4697 34.0452 24.0098C34.2176 23.55 34.3326 23.0758 34.3901 22.5729C34.4619 22.0556 34.5409 21.5958 34.62 21.1934H35.3672Z" fill="#414833"/>
<path d="M43.8369 14.1812C44.2967 14.2027 44.9003 14.2314 45.6475 14.2674C46.409 14.2889 47.1706 14.2961 47.9178 14.2961C48.9524 14.2961 49.9439 14.2889 50.9067 14.2674C51.8622 14.2314 52.5448 14.2099 52.9471 14.2099C54.7433 14.2099 56.2377 14.4685 57.4304 14.9858C58.6159 15.5031 59.5068 16.2072 60.1031 17.0838C60.6922 17.9675 60.994 18.9518 60.994 20.0439C60.994 20.7192 60.8575 21.4377 60.5917 22.1993C60.3186 22.9465 59.8588 23.6578 59.2122 24.326C58.5584 24.9798 57.6603 25.5258 56.5107 25.9641C55.3756 26.4095 53.9386 26.6251 52.1999 26.6251H49.0099V25.9353H51.8838C53.4501 25.9353 54.6499 25.6911 55.4761 25.1881C56.3168 24.6924 56.8915 24.0314 57.2005 23.2051C57.5022 22.3645 57.6603 21.4233 57.6603 20.3887C57.6603 18.65 57.2364 17.2993 56.3958 16.3366C55.5695 15.3594 54.1398 14.8709 52.1137 14.8709C51.0935 14.8709 50.4253 15.0649 50.102 15.4457C49.793 15.8121 49.6422 16.5665 49.6422 17.716V34.2983C49.6422 35.103 49.7068 35.7065 49.8433 36.1089C49.9727 36.4969 50.2313 36.7555 50.6193 36.8848C51.0216 37.0213 51.5964 37.1147 52.3436 37.1722V37.8332C51.8263 37.7973 51.1797 37.7757 50.4181 37.7757C49.6493 37.7614 48.8806 37.747 48.119 37.747C47.2353 37.747 46.409 37.7614 45.6475 37.7757C44.9003 37.7757 44.2967 37.7973 43.8369 37.8332V37.1722C44.5841 37.1147 45.1445 37.0213 45.5325 36.8848C45.9348 36.7555 46.2007 36.4969 46.3372 36.1089C46.4665 35.7065 46.5384 35.103 46.5384 34.2983V17.716C46.5384 16.897 46.4665 16.2935 46.3372 15.9055C46.2007 15.5247 45.9348 15.266 45.5325 15.1295C45.1445 14.9787 44.5841 14.8924 43.8369 14.8709V14.1812ZM49.1536 26.0503C50.3391 26.0934 51.2803 26.1365 51.97 26.194C52.6597 26.2515 53.2201 26.3089 53.6656 26.3664C54.1039 26.4095 54.5278 26.4526 54.9301 26.5101C56.403 26.7616 57.4663 27.2142 58.1201 27.8608C58.7883 28.5146 59.2769 29.5277 59.5858 30.9072L60.4192 34.3271C60.6491 35.3042 60.879 36.0155 61.109 36.4538C61.3389 36.8777 61.6981 37.0788 62.201 37.0573C62.5818 37.0429 62.8979 36.9279 63.1494 36.7124C63.3937 36.4825 63.6667 36.1807 63.9541 35.7928L64.4714 36.1664C64.0116 36.8561 63.523 37.3878 63.0057 37.747C62.5028 38.1062 61.8059 38.293 60.9078 38.293C60.0815 38.293 59.3559 38.0488 58.7236 37.5746C58.1057 37.0788 57.6387 36.1233 57.3154 34.7007L56.597 31.367C56.3814 30.4114 56.1515 29.578 55.9072 28.8667C55.6558 28.1626 55.3037 27.6166 54.8439 27.2286C54.3841 26.8262 53.7015 26.6251 52.8034 26.6251H49.2111L49.1536 26.0503Z" fill="#414833"/>
<path d="M72.6045 13.8363C73.7325 13.8363 74.5875 13.9656 75.1622 14.2099C75.737 14.4614 76.24 14.7488 76.6854 15.0721C76.9512 15.2301 77.174 15.3451 77.3464 15.4169C77.5188 15.496 77.6769 15.5319 77.835 15.5319C78.0433 15.5319 78.1942 15.4098 78.2948 15.1583C78.4097 14.914 78.496 14.5476 78.5534 14.0662H79.3294C79.3078 14.4326 79.2791 14.8853 79.2432 15.4169C79.2001 15.9342 79.1713 16.624 79.1569 17.4861C79.1569 18.3339 79.1569 19.4619 79.1569 20.8773H78.381C78.3235 19.8068 78.0936 18.7794 77.6913 17.8023C77.2889 16.8251 76.6998 16.0348 75.9382 15.4169C75.1694 14.7847 74.1636 14.4686 72.9206 14.4686C71.728 14.4686 70.7508 14.8278 69.9893 15.5319C69.2205 16.2432 68.8397 17.17 68.8397 18.3196C68.8397 19.3398 69.0984 20.1876 69.6157 20.8773C70.133 21.5527 70.8083 22.1634 71.6561 22.7166C72.5183 23.2555 73.4451 23.8302 74.4438 24.4409C75.6077 25.1522 76.6423 25.8635 77.5476 26.5676C78.4457 27.2573 79.1569 28.0333 79.6742 28.8955C80.2059 29.7433 80.4789 30.7563 80.4789 31.9418C80.4789 33.3787 80.1484 34.5714 79.5018 35.5054C78.848 36.425 77.9858 37.1291 76.9153 37.6033C75.8592 38.0631 74.6809 38.2931 73.3804 38.2931C72.2093 38.2931 71.2825 38.1565 70.5928 37.8907C69.903 37.6249 69.3067 37.3447 68.811 37.0573C68.308 36.7555 67.9272 36.5975 67.6614 36.5975C67.4459 36.5975 67.2878 36.7268 67.1729 36.9711C67.0723 37.2225 67.0004 37.589 66.9429 38.0631H66.167C66.2245 37.6033 66.2532 37.0573 66.2532 36.425C66.2676 35.7784 66.2819 34.945 66.2819 33.9248C66.2963 32.9117 66.3107 31.6185 66.3107 30.045H67.0866C67.1585 31.3886 67.4028 32.6459 67.8051 33.8098C68.2218 34.9594 68.8684 35.8934 69.7306 36.5975C70.5928 37.2872 71.728 37.6321 73.1505 37.6321C73.8762 37.6321 74.5659 37.4884 75.2197 37.201C75.8879 36.8992 76.4339 36.4178 76.8578 35.764C77.2746 35.0959 77.4901 34.2337 77.4901 33.1775C77.4901 32.2795 77.2674 31.4963 76.8291 30.821C76.4052 30.1312 75.8017 29.4918 75.0186 28.8955C74.2282 28.3063 73.323 27.7028 72.2884 27.0849C71.2322 26.4383 70.2479 25.7773 69.3283 25.1019C68.423 24.4338 67.6973 23.665 67.1441 22.8028C66.6053 21.9263 66.3394 20.863 66.3394 19.6128C66.3394 18.2908 66.634 17.2131 67.2303 16.3653C67.8195 15.5032 68.5954 14.8709 69.5582 14.4686C70.5137 14.0518 71.5268 13.8363 72.6045 13.8363Z" fill="#414833"/>
<path d="M92.882 14.0088L101.044 35.0169C101.367 35.879 101.741 36.4538 102.165 36.7412C102.581 37.0142 102.976 37.1579 103.343 37.1723V37.8333C102.897 37.7974 102.351 37.7758 101.705 37.7758C101.051 37.7614 100.412 37.7471 99.7793 37.7471C98.8956 37.7471 98.0693 37.7614 97.3078 37.7758C96.5605 37.7758 95.957 37.7974 95.4972 37.8333V37.1723C96.6252 37.1148 97.3437 36.9136 97.6526 36.5688C97.9759 36.2239 97.9185 35.4911 97.4802 34.3559L91.2439 17.7736L91.7899 17.3425L85.9847 32.4304C85.6182 33.3141 85.3955 34.0613 85.3237 34.672C85.2662 35.2899 85.3308 35.7785 85.5248 36.1377C85.7116 36.4826 86.0421 36.7412 86.502 36.9136C86.9618 37.0717 87.5366 37.1579 88.2263 37.1723V37.8333C87.594 37.7974 86.933 37.7758 86.2433 37.7758C85.5679 37.7614 84.9501 37.7471 84.3753 37.7471C83.8149 37.7471 83.3407 37.7614 82.9383 37.7758C82.5504 37.7758 82.1983 37.7974 81.875 37.8333V37.1723C82.3133 37.0573 82.7659 36.7987 83.2257 36.3963C83.6999 35.9796 84.131 35.2683 84.519 34.2697L92.3647 14.0088C92.4365 14.0088 92.5227 14.0088 92.6233 14.0088C92.7167 14.0088 92.8029 14.0088 92.882 14.0088ZM96.9629 28.2058V28.8955H87.0193L87.3354 28.2058H96.9629Z" fill="#414833"/>
<path d="M132.728 14.1812V14.8709C132.304 14.9499 131.851 15.2014 131.377 15.6181C130.896 16.042 130.464 16.7605 130.084 17.7735L122.238 38.0056C122.195 38.0056 122.152 38.0056 122.094 38.0056C122.051 38.0056 122.015 38.0056 121.979 38.0056C121.936 38.0056 121.893 38.0056 121.836 38.0056C121.793 38.0056 121.757 38.0056 121.721 38.0056L113.559 16.9976C113.228 16.1569 112.855 15.6037 112.438 15.3307C112.014 15.0433 111.619 14.8924 111.26 14.8709V14.1812C111.698 14.2027 112.244 14.2314 112.898 14.2674C113.566 14.2889 114.205 14.2961 114.823 14.2961C115.7 14.2961 116.519 14.2889 117.266 14.2674C118.028 14.2314 118.646 14.2027 119.105 14.1812V14.8709C118.358 14.8924 117.783 14.9787 117.381 15.1295C116.993 15.2876 116.785 15.5606 116.749 15.963C116.706 16.3509 116.842 16.9113 117.151 17.6586L123.359 34.1259L122.813 34.7007L128.618 19.6128C129.092 18.4058 129.315 17.4718 129.279 16.7964C129.257 16.1067 128.999 15.6181 128.503 15.3307C128.022 15.0433 127.31 14.8924 126.376 14.8709V14.1812C127.023 14.2027 127.684 14.2314 128.359 14.2674C129.028 14.2889 129.653 14.2961 130.227 14.2961C130.802 14.2961 131.276 14.2889 131.664 14.2674C132.045 14.2314 132.397 14.2027 132.728 14.1812Z" fill="#414833"/>
<path d="M142.416 14.1812V14.8709C141.669 14.8924 141.094 14.9787 140.692 15.1295C140.304 15.266 140.045 15.5247 139.916 15.9055C139.779 16.2935 139.714 16.897 139.714 17.716V34.2983C139.714 35.103 139.779 35.7065 139.916 36.1089C140.045 36.4969 140.304 36.7555 140.692 36.8848C141.094 37.0213 141.669 37.1147 142.416 37.1722V37.8332C141.899 37.7973 141.252 37.7757 140.49 37.7757C139.722 37.7614 138.953 37.747 138.191 37.747C137.308 37.747 136.481 37.7614 135.72 37.7757C134.973 37.7757 134.369 37.7973 133.909 37.8332V37.1722C134.656 37.1147 135.217 37.0213 135.605 36.8848C136.007 36.7555 136.273 36.4969 136.409 36.1089C136.539 35.7065 136.611 35.103 136.611 34.2983V17.716C136.611 16.897 136.539 16.2935 136.409 15.9055C136.273 15.5247 136.007 15.266 135.605 15.1295C135.217 14.9787 134.656 14.8924 133.909 14.8709V14.1812C134.369 14.2027 134.973 14.2314 135.72 14.2674C136.481 14.2889 137.308 14.2961 138.191 14.2961C138.953 14.2961 139.722 14.2889 140.49 14.2674C141.252 14.2314 141.899 14.2027 142.416 14.1812Z" fill="#414833"/>
<path d="M153.738 14.1812V14.8709C152.991 14.8924 152.416 14.9787 152.014 15.1295C151.626 15.266 151.367 15.5247 151.238 15.9055C151.101 16.2935 151.037 16.897 151.037 17.716V34.2983C151.037 35.103 151.101 35.7065 151.238 36.1089C151.367 36.4969 151.626 36.7555 152.014 36.8848C152.416 36.9998 152.991 37.0573 153.738 37.0573H156.181C157.23 37.0573 158.085 36.9567 158.739 36.7411C159.385 36.5112 159.903 36.1592 160.291 35.6778C160.693 35.2036 160.988 34.557 161.181 33.7523C161.39 32.9476 161.555 31.9705 161.67 30.8209H162.417C162.36 31.5107 162.331 32.4231 162.331 33.5511C162.331 33.975 162.338 34.5857 162.36 35.3904C162.396 36.1807 162.46 36.9926 162.561 37.8332C161.426 37.7973 160.147 37.7757 158.71 37.7757C157.287 37.7614 156.023 37.747 154.916 37.747C154.414 37.747 153.781 37.747 153.02 37.747C152.251 37.747 151.417 37.7614 150.519 37.7757C149.636 37.7757 148.738 37.7901 147.818 37.8045C146.913 37.8045 146.051 37.8188 145.231 37.8332V37.1722C145.979 37.1147 146.539 37.0213 146.927 36.8848C147.329 36.7555 147.595 36.4969 147.732 36.1089C147.861 35.7065 147.933 35.103 147.933 34.2983V17.716C147.933 16.897 147.861 16.2935 147.732 15.9055C147.595 15.5247 147.329 15.266 146.927 15.1295C146.539 14.9787 145.979 14.8924 145.231 14.8709V14.1812C145.691 14.2027 146.295 14.2314 147.042 14.2674C147.804 14.2889 148.63 14.2961 149.514 14.2961C150.275 14.2961 151.044 14.2889 151.813 14.2674C152.574 14.2314 153.221 14.2027 153.738 14.1812Z" fill="#414833"/>
<path d="M173.375 14.1812V14.8709C172.628 14.8924 172.053 14.9787 171.651 15.1295C171.263 15.266 171.004 15.5247 170.875 15.9055C170.738 16.2935 170.673 16.897 170.673 17.716V34.2983C170.673 35.103 170.738 35.7065 170.875 36.1089C171.004 36.4969 171.263 36.7555 171.651 36.8848C172.053 36.9998 172.628 37.0573 173.375 37.0573H175.818C176.867 37.0573 177.722 36.9567 178.375 36.7411C179.022 36.5112 179.539 36.1592 179.927 35.6778C180.33 35.2036 180.624 34.557 180.818 33.7523C181.027 32.9476 181.192 31.9705 181.307 30.8209H182.054C181.997 31.5107 181.968 32.4231 181.968 33.5511C181.968 33.975 181.975 34.5857 181.997 35.3904C182.032 36.1807 182.097 36.9926 182.198 37.8332C181.062 37.7973 179.784 37.7757 178.347 37.7757C176.924 37.7614 175.66 37.747 174.553 37.747C174.05 37.747 173.418 37.747 172.656 37.747C171.888 37.747 171.054 37.7614 170.156 37.7757C169.272 37.7757 168.374 37.7901 167.455 37.8045C166.549 37.8045 165.687 37.8188 164.868 37.8332V37.1722C165.615 37.1147 166.176 37.0213 166.564 36.8848C166.966 36.7555 167.232 36.4969 167.368 36.1089C167.498 35.7065 167.57 35.103 167.57 34.2983V17.716C167.57 16.897 167.498 16.2935 167.368 15.9055C167.232 15.5247 166.966 15.266 166.564 15.1295C166.176 14.9787 165.615 14.8924 164.868 14.8709V14.1812C165.328 14.2027 165.932 14.2314 166.679 14.2674C167.44 14.2889 168.267 14.2961 169.15 14.2961C169.912 14.2961 170.681 14.2889 171.449 14.2674C172.211 14.2314 172.858 14.2027 173.375 14.1812Z" fill="#414833"/>
<mask id="mask4_146_6" style="mask-type:luminance" maskUnits="userSpaceOnUse" x="182" y="12" width="24" height="27">
<path d="M182.09 12.875H205.44V38.625H182.09V12.875Z" fill="white"/>
</mask>
<g mask="url(#mask4_146_6)">
<path d="M193.874 14.0087L202.036 35.0168C202.359 35.8789 202.733 36.4537 203.157 36.7411C203.574 37.0141 203.969 37.1578 204.335 37.1722V37.8332C203.89 37.7972 203.344 37.7757 202.697 37.7757C202.043 37.7613 201.404 37.7469 200.771 37.7469C199.888 37.7469 199.062 37.7613 198.3 37.7757C197.553 37.7757 196.949 37.7972 196.489 37.8332V37.1722C197.617 37.1147 198.336 36.9135 198.645 36.5687C198.968 36.2238 198.911 35.4909 198.472 34.3558L192.236 17.7735L192.782 17.3424L186.977 32.4303C186.61 33.314 186.388 34.0612 186.316 34.6719C186.258 35.2898 186.323 35.7783 186.517 36.1376C186.704 36.4824 187.034 36.7411 187.494 36.9135C187.954 37.0716 188.529 37.1578 189.218 37.1722V37.8332C188.586 37.7972 187.925 37.7757 187.235 37.7757C186.56 37.7613 185.942 37.7469 185.367 37.7469C184.807 37.7469 184.333 37.7613 183.931 37.7757C183.543 37.7757 183.19 37.7972 182.867 37.8332V37.1722C183.305 37.0572 183.758 36.7986 184.218 36.3962C184.692 35.9795 185.123 35.2682 185.511 34.2695L193.357 14.0087C193.429 14.0087 193.515 14.0087 193.616 14.0087C193.709 14.0087 193.795 14.0087 193.874 14.0087ZM197.955 28.2057V28.8954H188.011L188.328 28.2057H197.955Z" fill="#414833"/>
</g>
</g>
</g>
<path d="M86.0723 44.5905V47.5218H86.101C86.2519 47.256 86.4315 47.0548 86.647 46.9183C86.8554 46.789 87.1069 46.7171 87.3943 46.7171C87.6816 46.7171 87.9475 46.8177 88.1989 47.0045C88.4432 47.1769 88.6444 47.4212 88.8025 47.723C88.9533 48.0104 89.0324 48.3409 89.0324 48.7001C89.0324 49.124 88.9318 49.5192 88.745 49.8784C88.551 50.2233 88.2852 50.5035 87.9403 50.7118C87.6098 50.8986 87.2506 50.9992 86.8482 50.9992C86.6183 50.9992 86.374 50.9561 86.1297 50.8843C85.8998 50.7909 85.6412 50.6543 85.3538 50.4819V45.9987C85.3538 45.7113 85.3107 45.5101 85.2388 45.3951C85.1814 45.2802 85.0736 45.2227 84.9227 45.2227C84.8437 45.2227 84.779 45.2371 84.7215 45.2514L84.6641 45.1078L85.8998 44.5905H86.0723ZM87.0494 50.7118C87.2577 50.7118 87.4589 50.64 87.6529 50.4819C87.8397 50.331 87.9978 50.1299 88.1127 49.8784C88.2277 49.6126 88.2852 49.318 88.2852 48.9875C88.2852 48.6857 88.2277 48.4055 88.1127 48.1541C88.0121 47.9098 87.8613 47.7158 87.6529 47.5793C87.4589 47.4284 87.2362 47.3494 86.9919 47.3494C86.8195 47.3494 86.6542 47.3925 86.5033 47.4643C86.3668 47.5218 86.2231 47.6296 86.0723 47.7805V50.252C86.3597 50.5609 86.683 50.7118 87.0494 50.7118Z" fill="#414833"/>
<path d="M91.2783 46.9758C91.1059 46.9758 90.9766 47.0045 90.9047 47.062C90.8472 47.1051 90.8185 47.1769 90.8185 47.2919C90.8185 47.4069 90.8329 47.5146 90.876 47.608C90.9119 47.6871 90.9335 47.723 90.9335 47.723L91.8818 49.8784L92.744 47.5218C92.8015 47.3925 92.8302 47.2919 92.8302 47.2344C92.8302 47.141 92.7871 47.0835 92.7153 47.062C92.6578 47.0261 92.55 46.9973 92.3991 46.9758V46.8033H93.5774V46.9758C93.4625 46.9973 93.3619 47.0476 93.29 47.1195C93.2326 47.1985 93.1607 47.3206 93.0889 47.4931L91.7381 51.1716C91.5657 51.5884 91.3645 51.9548 91.1346 52.2637C90.9191 52.587 90.6173 52.7523 90.215 52.7523C90.0426 52.7523 89.8989 52.702 89.7839 52.6086C89.6833 52.508 89.6402 52.393 89.6402 52.2637C89.6402 52.1488 89.6761 52.0482 89.7552 51.9763C89.8486 51.8973 89.9635 51.8614 90.1 51.8614C90.1719 51.8614 90.2437 51.8686 90.3012 51.8901C90.373 51.926 90.4233 51.9476 90.4449 51.9476C90.5598 52.0051 90.6461 52.0338 90.7035 52.0338C90.8544 52.0338 90.9909 51.926 91.1059 51.7177C91.2352 51.5021 91.3789 51.2004 91.537 50.798L90.3012 47.9816C90.1647 47.7158 90.0569 47.5218 89.9851 47.4069C89.9276 47.2919 89.8557 47.1985 89.7839 47.1195C89.7049 47.0476 89.5971 46.9973 89.4678 46.9758V46.8033H91.2783V46.9758Z" fill="#414833"/>
<path d="M96.8958 49.706L99.1374 44.5905H99.3098L101.666 50.0508C101.76 50.2448 101.846 50.3885 101.925 50.4819C101.997 50.5825 102.076 50.6472 102.155 50.6831C102.248 50.7262 102.371 50.7406 102.529 50.7406V50.8843H100.057V50.7406C100.265 50.7406 100.416 50.7046 100.517 50.6256C100.632 50.5538 100.689 50.446 100.689 50.3095C100.689 50.1945 100.646 50.0652 100.574 49.9071L100.115 48.8725H97.7005L97.1832 50.0221C97.1257 50.137 97.097 50.2376 97.097 50.3095C97.097 50.5969 97.3125 50.7406 97.758 50.7406V50.8843H96.0049V50.7406C96.1558 50.7262 96.2707 50.6831 96.3497 50.6256C96.4431 50.5538 96.5294 50.446 96.6084 50.3095C96.6802 50.1802 96.7808 49.979 96.8958 49.706ZM99.9708 48.5277L98.9075 46.0849L97.8442 48.5277H99.9708Z" fill="#414833"/>
<path d="M107.841 46.4296C107.841 46.7961 107.705 47.1122 107.439 47.378C107.187 47.651 106.807 47.8522 106.289 47.9815L107.697 49.7059C107.87 49.9214 108.014 50.0938 108.128 50.2232C108.243 50.3381 108.387 50.4531 108.56 50.568C108.732 50.6686 108.919 50.7261 109.134 50.7405V50.8842H107.554L105.283 48.0677H104.709V50.022C104.709 50.2735 104.773 50.4531 104.91 50.568C105.039 50.683 105.255 50.7405 105.542 50.7405H105.571V50.8842H102.927V50.7405C103.214 50.7405 103.423 50.6974 103.559 50.5968C103.688 50.4818 103.76 50.3022 103.76 50.0507V45.6824C103.76 45.4525 103.688 45.2945 103.559 45.1939C103.423 45.0789 103.214 45.0214 102.927 45.0214V44.849H105.743C106.318 44.849 106.807 44.9855 107.209 45.2513C107.626 45.5028 107.841 45.898 107.841 46.4296ZM104.709 45.3376V47.7516H104.938C105.528 47.7516 105.973 47.6367 106.26 47.4068C106.562 47.1768 106.72 46.8607 106.72 46.4584C106.72 46.0991 106.605 45.7902 106.375 45.5387C106.146 45.2945 105.815 45.1651 105.398 45.1651C105.168 45.1651 104.938 45.2226 104.709 45.3376Z" fill="#414833"/>
<path d="M112.176 45.0214C111.903 45.0214 111.723 45.043 111.63 45.0789C111.529 45.122 111.486 45.1867 111.486 45.2801C111.486 45.4166 111.572 45.6106 111.745 45.8549L113.095 47.8953L114.187 46.1997C114.489 45.7255 114.647 45.4166 114.647 45.2801C114.647 45.1867 114.59 45.122 114.475 45.0789C114.374 45.043 114.223 45.0214 114.015 45.0214V44.849H116.027V45.0214C115.739 45.0214 115.495 45.1076 115.308 45.2801C115.114 45.4381 114.877 45.7327 114.59 46.171L113.268 48.2977V50.022C113.268 50.216 113.296 50.3669 113.354 50.4818C113.426 50.5824 113.526 50.6471 113.641 50.683C113.771 50.7045 113.957 50.7261 114.187 50.7405V50.8842H111.371V50.7405H111.457C111.759 50.7405 111.982 50.683 112.118 50.568C112.247 50.4531 112.319 50.2375 112.319 49.907V48.3551L110.48 45.6249C110.344 45.4525 110.236 45.3304 110.164 45.2513C110.085 45.1579 109.999 45.1005 109.905 45.0789C109.805 45.043 109.675 45.0214 109.503 45.0214V44.849H112.176V45.0214Z" fill="#414833"/>
<path d="M117.143 49.706L119.384 44.5905H119.557L121.914 50.0508C122.007 50.2448 122.093 50.3885 122.172 50.4819C122.244 50.5825 122.323 50.6472 122.402 50.6831C122.495 50.7262 122.618 50.7406 122.776 50.7406V50.8843H120.304V50.7406C120.512 50.7406 120.663 50.7046 120.764 50.6256C120.879 50.5538 120.936 50.446 120.936 50.3095C120.936 50.1945 120.893 50.0652 120.821 49.9071L120.362 48.8725H117.948L117.43 50.0221C117.373 50.137 117.344 50.2376 117.344 50.3095C117.344 50.5969 117.56 50.7406 118.005 50.7406V50.8843H116.252V50.7406C116.403 50.7262 116.518 50.6831 116.597 50.6256C116.69 50.5538 116.776 50.446 116.855 50.3095C116.927 50.1802 117.028 49.979 117.143 49.706ZM120.218 48.5277L119.155 46.0849L118.091 48.5277H120.218Z" fill="#414833"/>
</g>
</svg>
